<?xml version="1.0" encoding="UTF-8"?>
<svg xmlns="http://www.w3.org/2000/svg" xmlns:xlink="http://www.w3.org/1999/xlink" viewBox="0 0 48 48" width="48px" height="48px">
<g id="surface132113360">
<path style=" stroke:none;fill-rule:nonzero;fill:rgb(73.725492%,47.058824%,1.176471%);fill-opacity:1;" d="M 47.257812 24 C 47.257812 11.15625 36.84375 0.742188 24 0.742188 C 11.15625 0.742188 0.742188 11.15625 0.742188 24 C 0.742188 36.84375 11.15625 47.257812 24 47.257812 C 36.84375 47.257812 47.257812 36.84375 47.257812 24 Z M 47.257812 24 "/>
<path style=" stroke:none;fill-rule:nonzero;fill:rgb(100%,100%,100%);fill-opacity:1;" d="M 25.070312 12.824219 C 24.75 12.648438 24.355469 12.664062 24.054688 12.863281 L 15.140625 18.65625 L 11.839844 18.65625 C 11.296875 18.65625 10.847656 19.097656 10.847656 19.648438 L 10.847656 28.339844 C 10.847656 28.882812 11.289062 29.335938 11.839844 29.335938 L 15.140625 29.335938 L 24.054688 35.128906 C 24.214844 35.230469 24.414062 35.289062 24.601562 35.289062 C 24.757812 35.289062 24.929688 35.25 25.070312 35.164062 C 25.386719 34.988281 25.585938 34.660156 25.585938 34.292969 L 25.585938 13.695312 C 25.585938 13.339844 25.386719 13.003906 25.070312 12.824219 Z M 34.058594 24 L 36.910156 21.148438 C 37.238281 20.820312 37.238281 20.289062 36.910156 19.960938 C 36.582031 19.632812 36.046875 19.632812 35.71875 19.960938 L 32.867188 22.808594 L 30.019531 19.960938 C 29.691406 19.632812 29.15625 19.632812 28.828125 19.960938 C 28.5 20.289062 28.5 20.820312 28.828125 21.148438 L 31.679688 24 L 28.828125 26.851562 C 28.5 27.179688 28.5 27.710938 28.828125 28.039062 C 28.996094 28.210938 29.210938 28.285156 29.429688 28.285156 C 29.644531 28.285156 29.859375 28.199219 30.027344 28.039062 L 32.878906 25.191406 L 35.726562 28.039062 C 35.898438 28.210938 36.113281 28.285156 36.328125 28.285156 C 36.542969 28.285156 36.757812 28.199219 36.929688 28.039062 C 37.257812 27.710938 37.257812 27.179688 36.929688 26.851562 Z M 34.058594 24 "/>
</g>
</svg>
