<?xml version="1.0" encoding="UTF-8"?>
<svg xmlns="http://www.w3.org/2000/svg" xmlns:xlink="http://www.w3.org/1999/xlink" viewBox="0 0 48 48" width="48px" height="48px">
<g id="surface131814515">
<path style=" stroke:none;fill-rule:nonzero;fill:rgb(88.235295%,63.921571%,23.137255%);fill-opacity:1;" d="M 47.4375 24 C 47.4375 11.15625 37.023438 0.742188 24.179688 0.742188 C 11.335938 0.742188 0.917969 11.15625 0.917969 24 C 0.917969 36.84375 11.335938 47.257812 24.179688 47.257812 C 37.023438 47.257812 47.4375 36.84375 47.4375 24 Z M 47.4375 24 "/>
<path style=" stroke:none;fill-rule:nonzero;fill:rgb(100%,100%,100%);fill-opacity:1;" d="M 25.902344 12.824219 C 25.585938 12.648438 25.191406 12.664062 24.890625 12.863281 L 15.976562 18.65625 L 12.675781 18.65625 C 12.132812 18.65625 11.679688 19.097656 11.679688 19.648438 L 11.679688 28.339844 C 11.679688 28.882812 12.121094 29.335938 12.675781 29.335938 L 15.976562 29.335938 L 24.890625 35.128906 C 25.050781 35.230469 25.246094 35.289062 25.433594 35.289062 C 25.59375 35.289062 25.761719 35.25 25.902344 35.164062 C 26.222656 34.988281 26.417969 34.660156 26.417969 34.292969 L 26.417969 13.695312 C 26.429688 13.339844 26.222656 13.003906 25.902344 12.824219 Z M 29.183594 31.023438 C 29.269531 31.023438 29.351562 31.003906 29.4375 30.976562 C 31.707031 30.09375 33.234375 27.367188 33.234375 24.1875 C 33.234375 21.375 31.996094 18.84375 30.085938 17.71875 C 29.757812 17.523438 29.324219 17.632812 29.128906 17.972656 C 28.929688 18.300781 29.042969 18.730469 29.382812 18.929688 C 30.882812 19.808594 31.847656 21.871094 31.847656 24.195312 C 31.847656 26.765625 30.648438 29.015625 28.929688 29.679688 C 28.574219 29.820312 28.398438 30.226562 28.539062 30.582031 C 28.640625 30.851562 28.914062 31.023438 29.183594 31.023438 Z M 29.183594 31.023438 "/>
<path style=" stroke:none;fill-rule:nonzero;fill:rgb(100%,100%,100%);fill-opacity:1;" d="M 31.003906 33.917969 C 31.085938 33.917969 31.171875 33.898438 31.257812 33.871094 C 34.445312 32.632812 36.675781 28.621094 36.675781 24.121094 C 36.675781 20.070312 34.902344 16.414062 32.164062 14.8125 C 31.835938 14.617188 31.40625 14.726562 31.210938 15.066406 C 31.011719 15.394531 31.125 15.824219 31.460938 16.023438 C 33.789062 17.382812 35.289062 20.570312 35.289062 24.132812 C 35.289062 28.070312 33.421875 31.546875 30.75 32.585938 C 30.394531 32.726562 30.214844 33.132812 30.355469 33.488281 C 30.460938 33.75 30.722656 33.917969 31.003906 33.917969 Z M 31.003906 33.917969 "/>
</g>
</svg>
